<svg xmlns="http://www.w3.org/2000/svg" viewBox="0 0 24 24" fill="#000000"><g transform="translate(0 2.215) scale(0.0234375)"><path d="M584.9245,744.576538 C588.962097,748.231934 592.999695,751.887268 597.194397,755.684814 C614.369202,741.867615 631.269287,728.379333 648.01178,714.698181 C650.874756,712.358704 653.104431,711.877014 656.865845,712.953674 C668.313782,716.230774 680.025146,718.577454 691.558655,721.575989 C693.468262,722.072449 695.721497,723.658752 696.584839,725.364441 C701.089905,734.265564 705.152527,743.389282 709.454407,752.394836 C714.808228,763.602844 720.245422,774.770996 725.81604,786.307373 C760.308533,775.713806 794.346619,765.259766 828.470276,754.779419 C828.19751,752.338135 828.030212,750.363525 827.749695,748.40509 C824.920349,728.653564 821.98761,708.916016 819.357544,689.138123 C819.086426,687.099548 819.989868,684.28772 821.368225,682.747437 C830.111755,672.976929 839.092651,663.415955 848.139343,653.923157 C849.306152,652.698853 851.344543,651.507751 852.910095,651.591431 C862.386292,652.098206 871.841492,652.991272 881.305481,653.733582 C894.208496,654.745728 907.113098,655.738281 920.307434,656.76178 C928.754639,622.212402 937.140991,587.91217 945.579834,553.396973 C943.738647,552.505066 942.161011,551.621765 940.497253,550.953125 C922.013489,543.524109 903.482727,536.210266 885.065979,528.619385 C882.78418,527.678894 880.023438,525.676575 879.299011,523.548645 C875.136536,511.322205 871.450378,498.930359 867.807068,486.534546 C867.332397,484.919495 867.411133,482.546753 868.288025,481.223907 C875.08905,470.963867 882.161804,460.884216 889.125305,450.731476 C895.02478,442.129974 900.890869,433.505524 906.985718,424.577759 C885.872559,405.153259 865.096069,385.926208 844.143005,366.893616 C841.306152,364.316681 840.090881,361.830048 840.097839,357.971924 C840.219055,290.639893 840.229004,223.307571 840.174316,155.975372 C840.15979,138.088531 834.746765,121.851784 823.773926,107.728653 C807.565308,86.866508 785.880371,76.941093 759.622803,76.885208 C722.623596,76.806465 685.624023,76.864624 648.624634,76.865257 C509.960205,76.867645 371.295807,76.859222 232.631378,76.886841 C214.644852,76.890427 198.048965,81.588112 183.651825,92.645088 C161.693008,109.509415 151.222214,131.898666 151.239304,159.611893 C151.331985,309.942566 151.128357,460.27356 151.368958,610.603882 C151.415482,639.672791 165.090469,661.659119 189.77829,676.93811 C203.328094,685.323975 218.162369,687.403564 233.7668,687.379272 C328.931641,687.23114 424.096832,687.289795 519.261841,687.36676 C521.23645,687.368347 523.752441,687.828552 525.10321,689.068787 C544.965881,707.307068 564.673279,725.714355 584.9245,744.576538 z M346.000244,226.647949 C485.446289,226.647949 624.392334,226.647949 763.589355,226.647949 C763.589355,281.912781 763.589355,336.689362 763.589355,390.996918 C752.586487,389.014679 741.499756,387.161407 730.501953,384.879822 C728.862488,384.539703 727.11731,382.434082 726.307007,380.725128 C718.189331,363.604126 710.261353,346.39325 702.268127,329.213165 C701.090149,326.681427 699.850464,324.178436 698.447266,321.263123 C691.868164,323.203156 685.533325,325.071777 679.197998,326.939209 C652.144653,334.913849 625.129456,343.022339 598.000366,350.730286 C593.482361,352.013947 594.812683,354.660004 595.174255,357.16864 C598.068298,377.245605 600.98999,397.319885 604.166138,417.353333 C604.637756,420.328217 603.584839,421.741821 601.739685,423.707489 C592.644836,433.396271 583.851746,443.368042 574.77948,453.078644 C573.68042,454.255035 571.479492,455.142792 569.888245,455.006714 C548.828003,453.205994 527.785583,451.196259 506.737823,449.249084 C506.09375,449.189484 505.439331,449.241547 504.447906,449.241547 C495.735901,483.685181 487.044067,518.049011 478.242493,552.846741 C494.324646,559.392639 509.992676,565.75061 525.643677,572.150269 C531.633423,574.599426 539.179443,575.709534 543.091248,580.059937 C546.79187,584.175537 546.590759,591.757019 548.234924,597.778931 C549.360718,601.901855 550.708069,605.964294 552.080933,610.461914 C444.021637,610.461914 336.335754,610.461914 228.368011,610.461914 C228.368011,482.577301 228.368011,354.859467 228.368011,226.647964 C267.588501,226.647964 306.544342,226.647964 346.000244,226.647949 z"/><path d="M700.212036,632.867126 C675.118347,628.341003 656.222778,615.312561 643.332764,593.914001 C616.479858,549.336121 642.162476,489.021484 692.876587,477.192596 C739.2453,466.377258 783.618896,496.235413 790.524658,542.89801 C796.938721,586.238037 766.302795,627.266052 722.970215,632.842712 C715.64801,633.785034 708.093323,632.920654 700.212036,632.867126 z"/></g></svg>